<?xml version="1.0" encoding="iso-8859-1"?><!-- Generator: Adobe Illustrator 21.0.2, SVG Export Plug-In . SVG Version: 6.00 Build 0)  --><svg xmlns="http://www.w3.org/2000/svg" xmlns:xlink="http://www.w3.org/1999/xlink" viewBox="0 0 80 80" width="80px" height="80px"><path style="fill:none;stroke:#000000;stroke-width:2;stroke-miterlimit:10;" d="M66.364,69H13.636C12.186,69,11,67.814,11,66.364V13.636C11,12.186,12.186,11,13.636,11h52.727C67.814,11,69,12.186,69,13.636v52.727C69,67.814,67.814,69,66.364,69z"/><circle style="fill:none;stroke:#000000;stroke-width:2;stroke-miterlimit:10;" cx="37.5" cy="37.5" r="12.5"/><line style="fill:none;stroke:#000000;stroke-width:2;stroke-miterlimit:10;" x1="46.273" y1="46.273" x2="55.795" y2="55.795"/><circle cx="30" cy="18" r="1"/><circle cx="34" cy="18" r="1"/><circle cx="38" cy="18" r="1"/><circle cx="42" cy="18" r="1"/><circle cx="26" cy="18" r="1"/><circle cx="46" cy="18" r="1"/><circle cx="50" cy="18" r="1"/><circle cx="54" cy="18" r="1"/><circle cx="22" cy="18" r="1"/><circle cx="58" cy="18" r="1"/><circle cx="30" cy="62" r="1"/><circle cx="34" cy="62" r="1"/><circle cx="38" cy="62" r="1"/><circle cx="42" cy="62" r="1"/><circle cx="26" cy="62" r="1"/><circle cx="46" cy="62" r="1"/><circle cx="50" cy="62" r="1"/><circle cx="54" cy="62" r="1"/><circle cx="22" cy="62" r="1"/><circle cx="58" cy="62" r="1"/><circle cx="62" cy="30" r="1"/><circle cx="62" cy="34" r="1"/><circle cx="62" cy="38" r="1"/><circle cx="62" cy="42" r="1"/><circle cx="62" cy="26" r="1"/><circle cx="62" cy="46" r="1"/><circle cx="62" cy="50" r="1"/><circle cx="62" cy="54" r="1"/><circle cx="62" cy="22" r="1"/><circle cx="62" cy="58" r="1"/><circle cx="18" cy="30" r="1"/><circle cx="18" cy="34" r="1"/><circle cx="18" cy="38" r="1"/><circle cx="18" cy="42" r="1"/><circle cx="18" cy="26" r="1"/><circle cx="18" cy="46" r="1"/><circle cx="18" cy="50" r="1"/><circle cx="18" cy="54" r="1"/><circle cx="18" cy="22" r="1"/><circle cx="62" cy="18" r="1"/><circle cx="18" cy="18" r="1"/><circle cx="62" cy="62" r="1"/><circle cx="18" cy="62" r="1"/><circle cx="18" cy="58" r="1"/></svg>